<svg viewBox="0 0 79.85 106.14">
      <rect x="44.5" width="35.35" height="35.35" rx="5.01" ry="5.01"/>
      <path d="M57.22,44.31h-16.86c-2.76,0-5.01-2.24-5.01-5.01v-16.67c0-2.76-2.24-5.01-5.01-5.01H5.01c-2.76,0-5.01,2.24-5.01,5.01v25.34c0,2.76,2.24,5.01,5.01,5.01h16.86c2.76,0,5.01,2.24,5.01,5.01v7.81c0,2.76-2.24,5.01-5.01,5.01H5.01c-2.76,0-5.01,2.24-5.01,5.01v25.34c0,2.76,2.24,5.01,5.01,5.01h25.34c2.76,0,5.01-2.24,5.01-5.01v-16.47c0-2.76,2.24-5.01,5.01-5.01h16.86c2.76,0,5.01-2.24,5.01-5.01v-25.34c0-2.76-2.24-5.01-5.01-5.01Z"/>
</svg>